<svg xmlns="http://www.w3.org/2000/svg" fill="none" viewBox="0 0 40 40" height="40" width="40" id="Voice-Mail--Streamline-Core.svg"><desc>Voice Mail Streamline Icon: https://streamlinehq.com</desc><g id="voice-mail--mic-audio-mike-music-microphone"><path id="Union" fill="#48afff" fill-rule="evenodd" d="M19.28577142857143 0c-2.2325142857142857 0 -4.373571428571429 0.88686 -5.9522 2.46548 -1.5786285714285715 1.5786342857142857 -2.4654857142857143 3.7196914285714286 -2.4654857142857143 5.952205714285714v9.784742857142858c0 2.2325142857142857 0.8868571428571429 4.373571428571429 2.4654857142857143 5.9522 1.5786285714285715 1.5785999999999998 3.7196857142857143 2.4654857142857143 5.9522 2.4654857142857143 2.2325142857142857 0 4.373571428571429 -0.8868857142857144 5.9522 -2.4654857142857143 1.5786285714285715 -1.5786285714285715 2.4654857142857143 -3.7196857142857143 2.4654857142857143 -5.9522V8.417685714285716c0 -2.2325142857142857 -0.8868571428571429 -4.373571428571429 -2.4654857142857143 -5.952205714285714C23.65934285714286 0.88686 21.518285714285714 0 19.28577142857143 0ZM17.142857142857142 34.30714285714286v3.4645714285714284c0 1.1834285714285715 0.9593999999999999 2.142857142857143 2.142857142857143 2.142857142857143s2.142857142857143 -0.9594285714285714 2.142857142857143 -2.142857142857143v-3.4645714285714284c7.952571428571428 -0.3728571428571429 14.285714285714286 -6.938600000000001 14.285714285714286 -14.9834 0 -1.1834857142857143 -0.9594285714285714 -2.142857142857143 -2.142857142857143 -2.142857142857143s-2.142857142857143 0.9593714285714287 -2.142857142857143 2.142857142857143c0 5.917314285714286 -4.796942857142858 10.714257142857143 -10.714285714285715 10.714257142857143h-1.3895142857142857c-0.013000000000000001 -0.00028571428571428574 -0.026000000000000002 -0.00028571428571428574 -0.03905714285714286 -0.00028571428571428574 -0.013057142857142857 0 -0.026057142857142855 0 -0.03905714285714286 0.00028571428571428574H17.857142857142858c-5.917342857142858 0 -10.714285714285715 -4.796942857142858 -10.714285714285715 -10.714257142857143 0 -1.1834857142857143 -0.9593999999999999 -2.142857142857143 -2.142857142857143 -2.142857142857143s-2.142857142857143 0.9593714285714287 -2.142857142857143 2.142857142857143C2.857142857142857 27.368542857142856 9.190257142857144 33.934285714285714 17.142857142857142 34.30714285714286Z" clip-rule="evenodd" stroke-width="1"></path></g></svg>